<?xml version="1.0" encoding="utf-8"?>
<svg xmlns="http://www.w3.org/2000/svg" style="display:none">
  <symbol id="add-file" viewBox="0 0 24 24">
    <path d="M13.5 3H12H8C6.34315 3 5 4.34315 5 6V18C5 19.6569 6.34315 21 8 21H11M13.5 3L19 8.625M13.5 3V7.625C13.5 8.17728 13.9477 8.625 14.5 8.625H19M19 8.625V11.8125" stroke="currentColor" stroke-width="2" stroke-linecap="round" stroke-linejoin="round" fill="none"/>
    <path d="M17 15V18M17 21V18M17 18H14M17 18H20" stroke="currentColor" stroke-width="2" stroke-linecap="round" stroke-linejoin="round" fill="none"/>
  </symbol>
  <symbol id="arrow-compress" viewBox="0 0 24 24">
    <path d="M5 5L10 10M10 10V5M10 10H5" stroke="currentColor" stroke-width="2" stroke-linecap="round" stroke-linejoin="round" fill="none"/>
    <path d="M19 19L14 14M14 14L14 19M14 14L19 14" stroke="currentColor" stroke-width="2" stroke-linecap="round" stroke-linejoin="round" fill="none"/>
  </symbol>
  <symbol id="arrow-compress-1" viewBox="0 0 24 24">
    <path d="M5 5L9 9M9 9V5M9 9H5" stroke="currentColor" stroke-width="2" stroke-linecap="round" stroke-linejoin="round" fill="none"/>
    <path d="M19 5L15 9M15 9L19 9M15 9L15 5" stroke="currentColor" stroke-width="2" stroke-linecap="round" stroke-linejoin="round" fill="none"/>
    <path d="M5 19L9 15M9 15L5 15M9 15L9 19" stroke="currentColor" stroke-width="2" stroke-linecap="round" stroke-linejoin="round" fill="none"/>
    <path d="M19 19L15 15M15 15L15 19M15 15L19 15" stroke="currentColor" stroke-width="2" stroke-linecap="round" stroke-linejoin="round" fill="none"/>
  </symbol>
  <symbol id="chevron-down" viewBox="0 0 24 24">
    <path d="M19 9L12.7071 15.2929C12.3166 15.6834 11.6834 15.6834 11.2929 15.2929L5 9" stroke="currentColor" stroke-width="2" stroke-linecap="round" stroke-linejoin="round" fill="none"/>
  </symbol>
  <symbol id="chevron-up" viewBox="0 0 24 24">
    <path d="M5 15L11.2929 8.70711C11.6834 8.31658 12.3166 8.31658 12.7071 8.70711L19 15" stroke="currentColor" stroke-width="2" stroke-linecap="round" stroke-linejoin="round" fill="none"/>
  </symbol>
  <symbol id="delete" viewBox="0 0 24 24">
    <path d="M4 7H20" stroke="currentColor" stroke-width="2" stroke-linecap="round" stroke-linejoin="round" fill="none"/>
    <path d="M6 10L7.70141 19.3578C7.87432 20.3088 8.70258 21 9.66915 21H14.3308C15.2974 21 16.1257 20.3087 16.2986 19.3578L18 10" stroke="currentColor" stroke-width="2" stroke-linecap="round" stroke-linejoin="round" fill="none"/>
    <path d="M9 5C9 3.89543 9.89543 3 11 3H13C14.1046 3 15 3.89543 15 5V7H9V5Z" stroke="currentColor" stroke-width="2" stroke-linecap="round" stroke-linejoin="round" fill="none"/>
  </symbol>
  <symbol id="edit" viewBox="0 0 24 24">
    <path d="M12 3.99997H6C4.89543 3.99997 4 4.8954 4 5.99997V18C4 19.1045 4.89543 20 6 20H18C19.1046 20 20 19.1045 20 18V12M18.4142 8.41417L19.5 7.32842C20.281 6.54737 20.281 5.28104 19.5 4.5C18.7189 3.71895 17.4526 3.71895 16.6715 4.50001L15.5858 5.58575M18.4142 8.41417L12.3779 14.4505C12.0987 14.7297 11.7431 14.9201 11.356 14.9975L8.41422 15.5858L9.00257 12.6441C9.08001 12.2569 9.27032 11.9013 9.54951 11.6221L15.5858 5.58575M18.4142 8.41417L15.5858 5.58575" stroke="currentColor" stroke-width="2" stroke-linecap="round" stroke-linejoin="round" fill="none"/>
  </symbol>
  <symbol id="expand-arrow" viewBox="0 0 24 24">
    <path d="M10 10L5 5M5 5L5 10M5 5L10 5" stroke="currentColor" stroke-width="2" stroke-linecap="round" stroke-linejoin="round" fill="none"/>
    <path d="M14 14L19 19M19 19V14M19 19H14" stroke="currentColor" stroke-width="2" stroke-linecap="round" stroke-linejoin="round" fill="none"/>
  </symbol>
  <symbol id="expand-arrow-1" viewBox="0 0 24 24">
    <path d="M9 9L5 5M5 5L5 9M5 5L9 5" stroke="currentColor" stroke-width="2" stroke-linecap="round" stroke-linejoin="round" fill="none"/>
    <path d="M15 9L19 5M19 5L15 5M19 5L19 9" stroke="currentColor" stroke-width="2" stroke-linecap="round" stroke-linejoin="round" fill="none"/>
    <path d="M9 15L5 19M5 19L9 19M5 19L5 15" stroke="currentColor" stroke-width="2" stroke-linecap="round" stroke-linejoin="round" fill="none"/>
    <path d="M15 15L19 19M19 19L19 15M19 19L15 19" stroke="currentColor" stroke-width="2" stroke-linecap="round" stroke-linejoin="round" fill="none"/>
  </symbol>
  <symbol id="file-add" viewBox="0 0 24 24">
    <path d="M18,22H6a2,2,0,0,1-2-2V4A2,2,0,0,1,6,2h7.1a2,2,0,0,1,1.5.6l4.9,5.2A2,2,0,0,1,20,9.2V20A2,2,0,0,1,18,22Z" fill="none" stroke="currentColor" stroke-linecap="round" stroke-linejoin="round" stroke-width="2"/>
    <line x1="12" x2="12" y1="17" y2="11" fill="none" stroke="currentColor" stroke-linecap="round" stroke-linejoin="round" stroke-width="2"/>
    <line x1="9" x2="15" y1="14" y2="14" fill="none" stroke="currentColor" stroke-linecap="round" stroke-linejoin="round" stroke-width="2"/>
  </symbol>
  <symbol id="remove-file" viewBox="0 0 24 24">
    <path d="M13.5 3H12H8C6.34315 3 5 4.34315 5 6V18C5 19.6569 6.34315 21 8 21H10" stroke="currentColor" stroke-width="2" stroke-linecap="round" stroke-linejoin="round" fill="none"/>
    <path d="M13.5 3L19 8.625" stroke="currentColor" stroke-width="2" stroke-linecap="round" stroke-linejoin="round" fill="none"/>
    <path d="M13.5 3V7.625C13.5 8.17728 13.9477 8.625 14.5 8.625H19" stroke="currentColor" stroke-width="2" stroke-linecap="round" stroke-linejoin="round" fill="none"/>
    <path d="M19 8.625V10.8125" stroke="currentColor" stroke-width="2" stroke-linecap="round" stroke-linejoin="round" fill="none"/>
    <path d="M14.0251 15.0251C13.3918 15.6585 13 16.5335 13 17.5C13 19.433 14.567 21 16.5 21C17.4665 21 18.3415 20.6082 18.9749 19.9749" stroke="currentColor" stroke-width="2" stroke-linecap="round" fill="none"/>
    <path d="M14.0251 15.0251C14.6585 14.3918 15.5335 14 16.5 14C18.433 14 20 15.567 20 17.5C20 18.4665 19.6082 19.3415 18.9749 19.9749" stroke="currentColor" stroke-width="2" stroke-linecap="round" fill="none"/>
    <path d="M14.0251 15.0251L16.5 17.5L18.9749 19.9749" stroke="currentColor" stroke-width="2" stroke-linecap="round" fill="none"/>
  </symbol>
  <symbol id="search" viewBox="0 0 24 24">
    <circle cx="10" cy="10" r="6" stroke="currentColor" stroke-width="2" stroke-linecap="round" stroke-linejoin="round" fill="none"/>
    <path d="M14.5 14.5L19 19" stroke="currentColor" stroke-width="2" stroke-linecap="round" stroke-linejoin="round" fill="none"/>
  </symbol>
  <symbol id="warning" viewBox="0 0 24 24">
    <path d="M12 7V13M21 12C21 16.9706 16.9706 21 12 21C7.02944 21 3 16.9706 3 12C3 7.02944 7.02944 3 12 3C16.9706 3 21 7.02944 21 12Z" stroke="currentColor" stroke-width="2" stroke-linecap="round" stroke-linejoin="round" fill="none"/>
    <circle cx="12" cy="16.5" r="1" fill="currentColor"/>
  </symbol>
  <symbol id="check-circle" viewBox="0 0 24 24">
    <path d="M7 13L10 16L17 9" stroke="currentColor" stroke-width="2" stroke-linecap="round" stroke-linejoin="round" fill="none"/>
    <circle cx="12" cy="12" r="9" stroke="currentColor" stroke-width="2" stroke-linecap="round" stroke-linejoin="round" fill="none"/>
  </symbol>
  <symbol id="login" viewBox="0 0 24 24">
    <path d="M15 16.5V19C15 20.1046 14.1046 21 13 21H6C4.89543 21 4 20.1046 4 19V5C4 3.89543 4.89543 3 6 3H13C14.1046 3 15 3.89543 15 5V8.0625M20 12L9 12M9 12L11.5 14.5M9 12L11.5 9.5" stroke="currentColor" stroke-width="2" stroke-linecap="round" stroke-linejoin="round" fill="none"/>
  </symbol>
  <symbol id="logout" viewBox="0 0 24 24">
    <path d="M15 16.5V19C15 20.1046 14.1046 21 13 21H6C4.89543 21 4 20.1046 4 19V5C4 3.89543 4.89543 3 6 3H13C14.1046 3 15 3.89543 15 5V8.0625M11 12H21M21 12L18.5 9.5M21 12L18.5 14.5" stroke="currentColor" stroke-width="2" stroke-linecap="round" stroke-linejoin="round" fill="none"/>
  </symbol>
  <symbol id="refresh" viewBox="0 0 24 24">
    <path d="M21 12C21 16.9706 16.9706 21 12 21C9.69494 21 7.59227 20.1334 6 18.7083L3 16M3 12C3 7.02944 7.02944 3 12 3C14.3051 3 16.4077 3.86656 18 5.29168L21 8M3 21V16M3 16H8M21 3V8M21 8H16" stroke="currentColor" stroke-width="2" stroke-linecap="round" stroke-linejoin="round"/>
  </symbol>
  <symbol id="copy" viewBox="0 0 24 24">
    <path d="M9 9V6.2c0-1.12 0-1.68.218-2.108A2 2 0 0 1 10.092 3.22C10.52 3 11.08 3 12.2 3h5.6c1.12 0 1.68 0 2.108.218.376.192.683.498.874.874C21 4.52 21 5.08 21 6.2v5.6c0 1.12 0 1.68-.218 2.108a2 2 0 0 1-.874.874C19.48 15 18.92 15 17.8 15H15" stroke="currentColor" stroke-width="2" stroke-linecap="round" stroke-linejoin="round" fill="none"/>
    <path d="M9 9H6.2c-1.12 0-1.68 0-2.108.218a2 2 0 0 0-.874.874C3 10.52 3 11.08 3 12.2v5.6c0 1.12 0 1.68.218 2.108.192.376.498.683.874.874C4.52 21 5.08 21 6.2 21h5.6c1.12 0 1.68 0 2.108-.218.376-.192.683-.498.874-.874C15 19.48 15 18.92 15 17.8V15" stroke="currentColor" stroke-width="2" stroke-linecap="round" stroke-linejoin="round" fill="none"/>
    <path d="M9 9h2.8c1.12 0 1.68 0 2.108.218.376.192.683.498.874.874C15 10.52 15 11.08 15 12.2V15" stroke="currentColor" stroke-width="2" stroke-linecap="round" stroke-linejoin="round" fill="none"/>
  </symbol>
</svg>
